<?xml version="1.0" encoding="UTF-8" standalone="no"?>
<!DOCTYPE svg PUBLIC "-//W3C//DTD SVG 1.1//EN" "http://www.w3.org/Graphics/SVG/1.1/DTD/svg11.dtd">
<svg width="100%" height="100%" viewBox="0 0 522 601" version="1.1" xmlns="http://www.w3.org/2000/svg" xmlns:xlink="http://www.w3.org/1999/xlink" xml:space="preserve" style="fill-rule:evenodd;clip-rule:evenodd;stroke-linejoin:round;stroke-miterlimit:2;">
    <g transform="matrix(1,0,0,1,-8,8)">
        <g transform="matrix(2.33706,0,0,2.33706,-383.577,19.7993)">
            <path d="M240.23,214.467L249.482,209.128L222.332,193.453L222.331,193.454L186.555,172.799L167.558,161.831L167.562,172.516C167.608,181.192 169.331,184.707 177.3,189.394L190.12,196.796L190.597,197.068L192.257,198.027L193.089,198.507L193.92,198.989L194.752,199.466L195.587,199.949L196.414,200.427L197.245,200.907L198.077,201.389L198.906,201.866L199.741,202.346L200.568,202.826L201.402,203.307L202.233,203.784L203.059,204.264L203.897,204.745L204.723,205.224L205.556,205.703L206.389,206.184L207.217,206.664L208.051,207.145L208.877,207.625L209.71,208.103L210.543,208.585L211.372,209.063L212.201,209.541L213.031,210.023L213.863,210.501L214.696,210.982L215.531,211.462L216.357,211.941L217.188,212.423L218.017,212.9L218.849,213.38L219.681,213.86L220.513,214.341L221.348,214.823L222.171,215.3L223.004,215.779L223.838,216.26L224.668,216.739L225.499,217.217L226.326,217.699L227.157,218.177L227.993,218.657L228.826,219.136L229.653,219.618L230.482,220.098L240.231,214.47L240.23,214.467ZM186.555,160.406L227.699,184.16L227.697,184.161L260.213,202.934L269.467,197.594L270.356,197.08L279.217,191.964L279.213,191.963L239.464,169.017L227.496,162.105L216.285,155.632L206.538,150.005L203.132,148.036L179.111,134.165L167.556,127.498L167.551,127.504L167.554,149.433L186.555,160.406Z" style="fill:rgb(255,0,122);"/>
        </g>
        <g transform="matrix(2.33706,0,0,2.33706,-383.577,18.2506)">
            <path d="M332.397,217.532L292.603,240.503L289.133,242.509C281.48,246.901 277.584,247.198 269.466,242.608L260.211,237.265L279.214,226.294L332.39,195.593L332.392,206.279L332.391,206.276L332.397,217.532ZM249.483,231.069L240.233,225.73L230.485,220.102L230.479,220.101L233.424,218.403L249.573,209.085L249.976,208.849L259.722,203.216L269.467,197.594L279.217,191.964L280.641,191.133L329.769,162.776L332.393,161.267L332.391,172.513L332.395,172.517L332.392,183.201L268.481,220.097L268.486,220.097L249.483,231.069Z" style="fill:rgb(255,0,122);"/>
        </g>
        <g transform="matrix(2.33706,0,0,2.33706,-383.577,19.7993)">
            <path d="M381.119,105.482L371.867,100.14L371.868,131.488L371.871,131.487L371.872,172.801L371.871,194.736L381.123,189.393C388.613,185.012 390.793,181.762 390.869,172.52L390.87,157.713L390.868,157.164L390.867,155.248L390.869,154.283L390.869,153.324L390.866,152.367L390.867,151.406L390.868,150.451L390.869,149.488L390.87,148.526L390.869,147.571L390.865,146.606L390.867,145.653L390.868,144.687L390.865,143.73L390.868,142.772L390.867,141.807L390.869,140.854L390.865,139.892L390.865,138.932L390.867,137.976L390.868,137.008L390.868,136.055L390.869,135.098L390.867,134.136L390.866,133.177L390.867,132.216L390.869,131.255L390.866,130.299L390.868,129.34L390.865,128.379L390.868,127.419L390.87,126.458L390.868,125.5L390.868,124.544L390.866,123.579L390.869,122.621L390.867,121.659L390.869,120.704L390.869,119.747L390.867,118.782L390.866,117.822L390.867,116.865L390.871,115.905L390.866,114.948L390.866,113.984L390.864,113.023L390.867,112.069L390.869,111.109L381.121,105.479L381.119,105.482ZM361.136,178.995L361.139,131.489L361.14,131.49L361.138,93.941L351.888,88.597L351.001,88.086L342.137,82.969L342.137,82.976L342.139,128.869L342.139,142.691L342.14,155.637L342.138,166.893L342.137,170.824L342.136,198.562L342.139,211.906L342.145,211.907L361.137,200.936L361.136,178.995Z" style="fill:rgb(255,0,122);"/>
        </g>
        <g transform="matrix(2.33706,0,0,2.33706,-383.577,19.7993)">
            <path d="M337.689,24.133L377.481,47.109L380.955,49.108C388.581,53.542 390.788,56.767 390.872,66.092L390.872,76.779L371.872,65.809L371.871,65.807L318.692,35.103L327.947,29.762L327.946,29.764L337.689,24.133ZM390.871,89.17L390.873,99.849L390.873,111.106L390.875,111.11L387.929,109.407L371.786,100.082L371.381,99.853L361.63,94.225L351.886,88.6L342.137,82.969L340.705,82.151L291.585,53.785L288.964,52.263L298.707,46.644L298.707,46.64L307.961,41.301L390.871,89.17Z" style="fill:rgb(255,0,122);"/>
        </g>
        <g transform="matrix(2.33706,0,0,2.33706,-383.577,19.7993)">
            <path d="M216.289,37.96L216.289,48.641L243.439,32.966L243.434,32.966L279.215,12.312L298.209,1.342L288.958,-3.997C281.42,-8.292 277.514,-8.557 269.472,-4.001L256.651,3.4L256.174,3.677L254.514,4.635L253.682,5.119L252.849,5.593L252.021,6.077L251.186,6.559L250.357,7.035L249.524,7.517L248.692,7.993L247.864,8.475L247.032,8.956L246.204,9.436L245.373,9.916L244.544,10.399L243.711,10.873L242.876,11.357L242.047,11.834L241.217,12.314L240.389,12.796L239.559,13.274L238.719,13.755L237.894,14.231L237.062,14.711L236.231,15.191L235.401,15.671L234.57,16.153L233.738,16.63L232.91,17.112L232.077,17.59L231.243,18.073L230.414,18.549L229.584,19.03L228.753,19.509L227.925,19.986L227.09,20.471L226.257,20.95L225.426,21.429L224.6,21.907L223.769,22.389L222.937,22.869L222.105,23.35L221.277,23.827L220.442,24.305L219.611,24.787L218.781,25.269L217.95,25.751L217.123,26.227L216.288,26.704L216.285,37.958L216.289,37.96ZM289.946,18.509L248.803,42.262L248.803,42.263L216.287,61.033L216.283,71.718L216.284,72.744L216.284,82.976L216.288,82.97L256.035,60.023L268.003,53.113L279.216,46.644L288.963,41.011L292.367,39.048L316.395,25.183L327.944,18.505L327.944,18.503L308.948,7.54L289.946,18.509Z" style="fill:rgb(255,0,122);"/>
        </g>
        <g transform="matrix(2.33706,0,0,2.33706,-383.577,19.7993)">
            <path d="M167.557,116.248L167.557,70.296L167.555,66.291C167.577,57.47 169.268,53.945 177.298,49.21L186.555,43.865L186.556,65.808L186.555,119.065L186.555,127.214L177.302,121.87L177.301,121.872L167.557,116.248ZM197.288,37.671L206.536,32.331L216.284,26.704L216.287,26.699L216.283,30.097L216.281,48.742L216.284,49.21L216.286,60.464L216.286,71.717L216.284,82.976L216.292,84.625L216.286,141.351L216.281,144.379L206.539,138.753L206.536,138.755L197.289,133.409L197.287,119.063L197.289,59.612L197.288,37.671Z" style="fill:rgb(255,0,122);"/>
        </g>
    </g>
</svg>
